<mxfile host="app.diagrams.net" agent="Mozilla/5.0 (Windows NT 10.0; Win64; x64) AppleWebKit/537.36 (KHTML, like Gecko) Chrome/139.0.0.0 Safari/537.36" version="28.1.2">
  <diagram name="Page-1" id="GJWc1g9_lXX5AdjxwUbR">
    <mxGraphModel dx="1042" dy="2727" grid="1" gridSize="10" guides="1" tooltips="1" connect="1" arrows="1" fold="1" page="1" pageScale="1" pageWidth="850" pageHeight="1100" math="0" shadow="0">
      <root>
        <mxCell id="0" />
        <mxCell id="1" parent="0" />
        <mxCell id="GqVq9tOp4N7PVr5Av5DS-8" style="edgeStyle=orthogonalEdgeStyle;rounded=0;orthogonalLoop=1;jettySize=auto;html=1;exitX=0.5;exitY=1;exitDx=0;exitDy=0;" edge="1" parent="1" source="GqVq9tOp4N7PVr5Av5DS-1" target="GqVq9tOp4N7PVr5Av5DS-3">
          <mxGeometry relative="1" as="geometry" />
        </mxCell>
        <mxCell id="GqVq9tOp4N7PVr5Av5DS-1" value="PLAN" style="ellipse;whiteSpace=wrap;html=1;" vertex="1" parent="1">
          <mxGeometry x="320" y="-1660" width="120" height="80" as="geometry" />
        </mxCell>
        <mxCell id="GqVq9tOp4N7PVr5Av5DS-4" value="" style="edgeStyle=orthogonalEdgeStyle;rounded=0;orthogonalLoop=1;jettySize=auto;html=1;" edge="1" parent="1" source="GqVq9tOp4N7PVr5Av5DS-3" target="GqVq9tOp4N7PVr5Av5DS-1">
          <mxGeometry relative="1" as="geometry" />
        </mxCell>
        <mxCell id="GqVq9tOp4N7PVr5Av5DS-5" style="edgeStyle=orthogonalEdgeStyle;rounded=0;orthogonalLoop=1;jettySize=auto;html=1;exitX=0.5;exitY=1;exitDx=0;exitDy=0;" edge="1" parent="1" source="GqVq9tOp4N7PVr5Av5DS-23" target="GqVq9tOp4N7PVr5Av5DS-13">
          <mxGeometry relative="1" as="geometry">
            <mxPoint x="380" y="-1180" as="targetPoint" />
            <Array as="points" />
          </mxGeometry>
        </mxCell>
        <mxCell id="GqVq9tOp4N7PVr5Av5DS-7" value="" style="edgeStyle=orthogonalEdgeStyle;rounded=0;orthogonalLoop=1;jettySize=auto;html=1;" edge="1" parent="1" source="GqVq9tOp4N7PVr5Av5DS-3" target="GqVq9tOp4N7PVr5Av5DS-6">
          <mxGeometry relative="1" as="geometry" />
        </mxCell>
        <mxCell id="GqVq9tOp4N7PVr5Av5DS-3" value="DEVELOP" style="ellipse;whiteSpace=wrap;html=1;" vertex="1" parent="1">
          <mxGeometry x="320" y="-1530" width="120" height="80" as="geometry" />
        </mxCell>
        <mxCell id="GqVq9tOp4N7PVr5Av5DS-10" style="edgeStyle=orthogonalEdgeStyle;rounded=0;orthogonalLoop=1;jettySize=auto;html=1;exitX=0.5;exitY=1;exitDx=0;exitDy=0;" edge="1" parent="1" source="GqVq9tOp4N7PVr5Av5DS-6">
          <mxGeometry relative="1" as="geometry">
            <mxPoint x="380" y="-1340" as="targetPoint" />
          </mxGeometry>
        </mxCell>
        <mxCell id="GqVq9tOp4N7PVr5Av5DS-22" value="" style="edgeStyle=orthogonalEdgeStyle;rounded=0;orthogonalLoop=1;jettySize=auto;html=1;" edge="1" parent="1" source="GqVq9tOp4N7PVr5Av5DS-6">
          <mxGeometry relative="1" as="geometry">
            <mxPoint x="380" y="-1300" as="targetPoint" />
          </mxGeometry>
        </mxCell>
        <mxCell id="GqVq9tOp4N7PVr5Av5DS-6" value="BUILT" style="ellipse;whiteSpace=wrap;html=1;" vertex="1" parent="1">
          <mxGeometry x="320" y="-1410" width="120" height="80" as="geometry" />
        </mxCell>
        <mxCell id="GqVq9tOp4N7PVr5Av5DS-13" value="RELEASE" style="ellipse;whiteSpace=wrap;html=1;" vertex="1" parent="1">
          <mxGeometry x="320" y="-1180" width="120" height="80" as="geometry" />
        </mxCell>
        <mxCell id="GqVq9tOp4N7PVr5Av5DS-18" style="edgeStyle=orthogonalEdgeStyle;rounded=0;orthogonalLoop=1;jettySize=auto;html=1;exitX=0.5;exitY=1;exitDx=0;exitDy=0;entryX=0.5;entryY=0;entryDx=0;entryDy=0;" edge="1" parent="1" source="GqVq9tOp4N7PVr5Av5DS-14" target="GqVq9tOp4N7PVr5Av5DS-15">
          <mxGeometry relative="1" as="geometry" />
        </mxCell>
        <mxCell id="GqVq9tOp4N7PVr5Av5DS-14" value="DEPLOY" style="ellipse;whiteSpace=wrap;html=1;" vertex="1" parent="1">
          <mxGeometry x="330" y="-1070" width="120" height="80" as="geometry" />
        </mxCell>
        <mxCell id="GqVq9tOp4N7PVr5Av5DS-15" value="MONITOR" style="ellipse;whiteSpace=wrap;html=1;" vertex="1" parent="1">
          <mxGeometry x="330" y="-950" width="120" height="80" as="geometry" />
        </mxCell>
        <mxCell id="GqVq9tOp4N7PVr5Av5DS-19" style="edgeStyle=orthogonalEdgeStyle;rounded=0;orthogonalLoop=1;jettySize=auto;html=1;exitX=0.5;exitY=1;exitDx=0;exitDy=0;entryX=0.407;entryY=0.06;entryDx=0;entryDy=0;entryPerimeter=0;" edge="1" parent="1" source="GqVq9tOp4N7PVr5Av5DS-13" target="GqVq9tOp4N7PVr5Av5DS-14">
          <mxGeometry relative="1" as="geometry" />
        </mxCell>
        <mxCell id="GqVq9tOp4N7PVr5Av5DS-23" value="TEST" style="ellipse;whiteSpace=wrap;html=1;" vertex="1" parent="1">
          <mxGeometry x="320" y="-1300" width="120" height="80" as="geometry" />
        </mxCell>
      </root>
    </mxGraphModel>
  </diagram>
</mxfile>
